<?xml version="1.0" encoding="UTF-8" standalone="no"?>
<!-- Generator: Adobe Illustrator 21.0.0, SVG Export Plug-In . SVG Version: 6.00 Build 0)  -->

<svg
   xmlns:dc="http://purl.org/dc/elements/1.1/"
   xmlns:cc="http://creativecommons.org/ns#"
   xmlns:rdf="http://www.w3.org/1999/02/22-rdf-syntax-ns#"
   xmlns:svg="http://www.w3.org/2000/svg"
   xmlns="http://www.w3.org/2000/svg"
   xmlns:sodipodi="http://sodipodi.sourceforge.net/DTD/sodipodi-0.dtd"
   xmlns:inkscape="http://www.inkscape.org/namespaces/inkscape"
   version="1.1"
   id="Layer_1"
   x="0px"
   y="0px"
   width="68px"
   height="68px"
   viewBox="0 0 68 68"
   style="enable-background:new 0 0 68 68;"
   xml:space="preserve"
   inkscape:version="0.48.2 r9819"
   sodipodi:docname="cyclops-sauron.svg"><metadata
   id="metadata24"><rdf:RDF><cc:Work
       rdf:about=""><dc:format>image/svg+xml</dc:format><dc:type
         rdf:resource="http://purl.org/dc/dcmitype/StillImage" /><dc:title /></cc:Work></rdf:RDF></metadata><defs
   id="defs22" /><sodipodi:namedview
   pagecolor="#ffffff"
   bordercolor="#666666"
   borderopacity="1"
   objecttolerance="10"
   gridtolerance="10"
   guidetolerance="10"
   inkscape:pageopacity="0"
   inkscape:pageshadow="2"
   inkscape:window-width="1920"
   inkscape:window-height="1028"
   id="namedview20"
   showgrid="false"
   inkscape:zoom="11.313709"
   inkscape:cx="25.095773"
   inkscape:cy="35.98528"
   inkscape:window-x="1272"
   inkscape:window-y="-8"
   inkscape:window-maximized="1"
   inkscape:current-layer="Layer_1" />
<style
   type="text/css"
   id="style3">
	.st0{fill:none;stroke:#00DCF0;stroke-width:0.2835;stroke-linecap:round;stroke-linejoin:round;stroke-miterlimit:10;}
	.st1{fill:none;stroke:#00DCF0;stroke-width:0.2835;stroke-miterlimit:10;}
	.st2{fill:none;stroke:#000000;stroke-width:0.2835;stroke-linecap:round;stroke-linejoin:round;stroke-miterlimit:10;}
	.st3{fill:none;stroke:#F00000;stroke-width:0.2835;stroke-linecap:round;stroke-linejoin:round;stroke-miterlimit:10;}
</style>
<rect
   x="-8.5"
   y="-8.5"
   class="st0"
   width="85"
   height="85"
   id="rect5" />
<circle
   class="st0"
   cx="34"
   cy="34"
   r="34"
   id="circle7" />
<path
   id="scleraBack"
   class="st0"
   d="m 33.980453,0.59786314 c -18.499519,0 -33.38258986,14.88307086 -33.38258986,33.38258986 0,18.499518 14.88307086,33.521684 33.38258986,33.521684 18.499518,0 33.521684,-15.022166 33.521684,-33.521684 0,-18.499519 -15.022166,-33.38258986 -33.521684,-33.38258986"
   inkscape:connector-curvature="0"
   style="fill:none;stroke:#00dcf0;stroke-width:0.39433181;stroke-linecap:round;stroke-linejoin:round;stroke-miterlimit:10" />
<path
   id="scleraFront"
   class="st1"
   d="M 34,1.561734 C 51.880605,1.561734 66.438266,16.119395 66.438266,34 66.438266,51.880605 51.880605,66.438266 34,66.438266 16.119395,66.438266 1.561734,51.880605 1.561734,34 1.561734,16.119395 16.119395,1.561734 34,1.561734"
   inkscape:connector-curvature="0"
   style="fill:none;stroke:#00dcf0;stroke-width:0.44859746;stroke-miterlimit:10" />
<path
   id="iris"
   class="st2"
   d="M 34,1.0857168 C 52.397503,1.0857168 66.914283,15.889958 66.914283,34 66.914283,52.110042 52.397503,66.914283 34,66.914283 15.602497,66.914283 1.0857168,52.397503 1.0857168,34 1.0857168,15.602497 15.602497,1.0857168 34,1.0857168"
   inkscape:connector-curvature="0"
   style="fill:none;stroke:#000000;stroke-width:0.40747592;stroke-linecap:round;stroke-linejoin:round;stroke-miterlimit:10" />
<path
   id="pupilMax"
   class="st2"
   d="m 34,14.4 c 5.870225,3.9 9.754933,11.2 9.754933,19.6 0,8.4 -3.884708,15.7 -9.754933,19.6 C 28.129775,49.7 24.245067,42.4 24.245067,34 24.245067,25.6 28.129775,18.3 34,14.4"
   inkscape:connector-curvature="0"
   style="fill:none;stroke:#000000;stroke-width:0.26340619;stroke-linecap:round;stroke-linejoin:round;stroke-miterlimit:10" />
<path
   id="pupilMin"
   class="st2"
   d="M34,15.1c1.8,6,2.8,12.3,2.8,18.9s-1,12.9-2.8,18.9c-1.8-6-2.8-12.3-2.8-18.9S32.2,21.1,34,15.1" />






<path
   inkscape:connector-curvature="0"
   id="lowerLidOpen"
   class="st2"
   d="m 68.035845,31.396623 c 1,12.4 -4.3,22.6 -11.8,28.6 -7.4,5.9 -15.4,6.9 -22.3,6.9 -6.9,0 -15.1,-1.1 -22.5,-7 -7.5,-6 -12.8,-16.2 -11.8,-28.6"
   style="fill:none;stroke:#f00000;stroke-width:0.28349999;stroke-linecap:round;stroke-linejoin:round;stroke-miterlimit:10" /><path
   inkscape:connector-curvature="0"
   id="lowerLidEdge"
   class="st2"
   d="m 72.535845,31.296623 c 0.1,0.8 0.1,1.6 0.1,2.4 0,21.4 -17.3,38.6 -38.7,38.7 -21.4,-0.1 -38.7,-17.3 -38.7,-38.7 0,-0.8 0,-1.6 0.1,-2.4"
   style="fill:none;stroke:#f00000;stroke-width:0.28349999;stroke-linecap:round;stroke-linejoin:round;stroke-miterlimit:10" /><path
   inkscape:connector-curvature="0"
   id="upperLidClosed"
   class="st2"
   d="m 68.035845,31.396623 c -0.2,5.5 -7.8,11.1 -13.3,13.9 -7.1,3.6 -15.4,4.6 -20.9,4.6 h 0.2 c -5.5,0 -13.8,-1 -20.9,-4.6 -5.5,-2.8 -13.1,-8.4 -13.3,-13.9"
   style="fill:none;stroke:#f00000;stroke-width:0.28349999;stroke-linecap:round;stroke-linejoin:round;stroke-miterlimit:10" /><path
   id="upperLidOpen"
   class="st2"
   d="m 67.535845,28.896623 c -2.4,-16.5 -16.6,-29.2 -33.7,-29.2 -17.1,0 -31.3,12.7 -33.7,29.2"
   inkscape:connector-curvature="0"
   style="fill:none;stroke:#f00000;stroke-width:0.28349999;stroke-linecap:round;stroke-linejoin:round;stroke-miterlimit:10" /><path
   inkscape:connector-curvature="0"
   id="upperLidEdge"
   class="st2"
   d="m -4.664155,29.796623 c 1.9,-19.6 18.4,-34.8 38.5,-34.8 20.1,0 36.6,15.2 38.5,34.8"
   style="fill:none;stroke:#f00000;stroke-width:0.28349999;stroke-linecap:round;stroke-linejoin:round;stroke-miterlimit:10" /><path
   inkscape:connector-curvature="0"
   id="lowerLidClosed"
   class="st2"
   d="m 67.72569,29.673846 c 0.3,4.4 -1.9,8.7 -10.5,12.8 -6.9,3.3 -14.6,5.1 -23.5,5.1 -8.9,0 -16.6,-1.8 -23.5,-5.1 -8.5000049,-4.1 -10.80000555,-8.4 -10.50000555,-12.8"
   style="fill:none;stroke:#f00000;stroke-width:0.28349999;stroke-linecap:round;stroke-linejoin:round;stroke-miterlimit:10" /></svg>